ffmpeg started on 2016-12-06 at 01:19:01
Report written to "Output/x264/results/ffmpeg/crowd_run_2160p50fast1500k.log"
Command line:
Tools/ffmpeg/ffmpeg -benchmark -y -i Input/y4m/crowd_run_2160p50.y4m -c:v libx264 -preset fast -b:v 1500k -an Output/x264/encoded/crowd_run_2160p50fast1500k.mkv
ffmpeg version N-82227-gdb23fde Copyright (c) 2000-2016 the FFmpeg developers
  built with gcc 5.4.0 (Ubuntu 5.4.0-6ubuntu1~16.04.2) 20160609
  configuration: --prefix=/home/jaroslav/ffmpeg_build --pkg-config-flags=--static --extra-cflags=-I/home/jaroslav/ffmpeg_build/include --extra-ldflags=-L/home/jaroslav/ffmpeg_build/lib --bindir=/home/jaroslav/bin --enable-gpl --enable-libass --enable-libfdk-aac --enable-libfreetype --enable-libmp3lame --enable-libopus --enable-libtheora --enable-libvorbis --enable-libvpx --enable-libx264 --enable-libx265 --enable-nvenc --enable-libmfx --enable-libxvid --enable-libgsm --enable-libopencore-amrnb --enable-version3 --enable-nonfree
  libavutil      55. 35.100 / 55. 35.100
  libavcodec     57. 66.101 / 57. 66.101
  libavformat    57. 57.100 / 57. 57.100
  libavdevice    57.  2.100 / 57.  2.100
  libavfilter     6. 66.100 /  6. 66.100
  libswscale      4.  3.100 /  4.  3.100
  libswresample   2.  4.100 /  2.  4.100
  libpostproc    54.  2.100 / 54.  2.100
Input #0, yuv4mpegpipe, from 'Input/y4m/crowd_run_2160p50.y4m':
  Duration: 00:00:10.00, start: 0.000000, bitrate: 4976642 kb/s
    Stream #0:0: Video: rawvideo (I420 / 0x30323449), yuv420p(progressive), 3840x2160, SAR 1:1 DAR 16:9, 50 fps, 50 tbr, 50 tbn, 50 tbc
[libx264 @ 0x357a1c0] using SAR=1/1
[libx264 @ 0x357a1c0] using cpu capabilities: MMX2 SSE2Fast SSSE3 SSE4.2 AVX FMA3 AVX2 LZCNT BMI2
[libx264 @ 0x357a1c0] profile High, level 5.2
[libx264 @ 0x357a1c0] 264 - core 148 - H.264/MPEG-4 AVC codec - Copyleft 2003-2016 - http://www.videolan.org/x264.html - options: cabac=1 ref=2 deblock=1:0:0 analyse=0x3:0x113 me=hex subme=6 psy=1 psy_rd=1.00:0.00 mixed_ref=1 me_range=16 chroma_me=1 trellis=1 8x8dct=1 cqm=0 deadzone=21,11 fast_pskip=1 chroma_qp_offset=-2 threads=6 lookahead_threads=1 sliced_threads=0 nr=0 decimate=1 interlaced=0 bluray_compat=0 constrained_intra=0 bframes=3 b_pyramid=2 b_adapt=1 b_bias=0 direct=1 weightb=1 open_gop=0 weightp=1 keyint=250 keyint_min=25 scenecut=40 intra_refresh=0 rc_lookahead=30 rc=abr mbtree=1 bitrate=1500 ratetol=1.0 qcomp=0.60 qpmin=0 qpmax=69 qpstep=4 ip_ratio=1.40 aq=1:1.00
Output #0, matroska, to 'Output/x264/encoded/crowd_run_2160p50fast1500k.mkv':
  Metadata:
    encoder         : Lavf57.57.100
    Stream #0:0: Video: h264 (libx264) (H264 / 0x34363248), yuv420p, 3840x2160 [SAR 1:1 DAR 16:9], q=-1--1, 1500 kb/s, 50 fps, 1k tbn, 50 tbc
    Metadata:
      encoder         : Lavc57.66.101 libx264
    Side data:
      cpb: bitrate max/min/avg: 0/0/1500000 buffer size: 0 vbv_delay: -1
Stream mapping:
  Stream #0:0 -> #0:0 (rawvideo (native) -> h264 (libx264))
Press [q] to stop, [?] for help
frame=   19 fps=0.0 q=0.0 size=       0kB time=00:00:00.00 bitrate=N/A speed=   0x    frame=   34 fps= 33 q=0.0 size=       0kB time=00:00:00.00 bitrate=N/A speed=   0x    frame=   37 fps= 14 q=0.0 size=       0kB time=00:00:00.00 bitrate=N/A speed=   0x    frame=   46 fps= 14 q=56.0 size=       1kB time=00:00:00.06 bitrate=  96.3kbits/s speed=0.0183x    frame=   53 fps= 14 q=69.0 size=       1kB time=00:00:00.20 bitrate=  29.2kbits/s speed=0.0518x    frame=   62 fps= 14 q=69.0 size=       1kB time=00:00:00.38 bitrate=  15.4kbits/s speed=0.0846x    frame=   71 fps= 14 q=69.0 size=       1kB time=00:00:00.56 bitrate=  10.5kbits/s speed=0.112x    frame=   79 fps= 14 q=69.0 size=       1kB time=00:00:00.72 bitrate=   8.1kbits/s speed=0.13x    frame=   88 fps= 15 q=69.0 size=       1kB time=00:00:00.90 bitrate=   6.5kbits/s speed=0.149x    frame=   97 fps= 15 q=69.0 size=       1kB time=00:00:01.08 bitrate=   5.4kbits/s speed=0.164x    frame=  106 fps= 15 q=69.0 size=       1kB time=00:00:01.26 bitrate=   4.7kbits/s speed=0.174x    frame=  115 fps= 15 q=69.0 size=       1kB time=00:00:01.44 bitrate=   4.1kbits/s speed=0.185x    frame=  124 fps= 15 q=69.0 size=       1kB time=00:00:01.62 bitrate=   3.6kbits/s speed=0.195x    frame=  133 fps= 15 q=69.0 size=       1kB time=00:00:01.80 bitrate=   3.3kbits/s speed=0.204x    frame=  142 fps= 15 q=69.0 size=       1kB time=00:00:01.98 bitrate=   3.0kbits/s speed=0.209x    frame=  151 fps= 15 q=69.0 size=       1kB time=00:00:02.16 bitrate=   2.7kbits/s speed=0.216x    frame=  160 fps= 15 q=69.0 size=       1kB time=00:00:02.34 bitrate=   2.5kbits/s speed=0.223x    frame=  169 fps= 15 q=69.0 size=       1kB time=00:00:02.52 bitrate=   2.3kbits/s speed=0.229x    frame=  178 fps= 15 q=69.0 size=       1kB time=00:00:02.70 bitrate=   2.2kbits/s speed=0.231x    frame=  187 fps= 15 q=69.0 size=       1kB time=00:00:02.88 bitrate=   2.0kbits/s speed=0.236x    frame=  196 fps= 15 q=69.0 size=       1kB time=00:00:03.06 bitrate=   1.9kbits/s speed=0.241x    frame=  205 fps= 15 q=69.0 size=       1kB time=00:00:03.24 bitrate=   1.8kbits/s speed=0.245x    frame=  214 fps= 15 q=69.0 size=       1kB time=00:00:03.42 bitrate=   1.7kbits/s speed=0.246x    frame=  223 fps= 15 q=69.0 size=       1kB time=00:00:03.60 bitrate=   1.6kbits/s speed=0.25x    frame=  232 fps= 16 q=69.0 size=       1kB time=00:00:03.78 bitrate=   1.6kbits/s speed=0.253x    frame=  241 fps= 16 q=69.0 size=       1kB time=00:00:03.96 bitrate=   1.5kbits/s speed=0.257x    frame=  250 fps= 16 q=69.0 size=       1kB time=00:00:04.14 bitrate=   1.4kbits/s speed=0.257x    frame=  259 fps= 16 q=69.0 size=       1kB time=00:00:04.32 bitrate=   1.4kbits/s speed=0.26x    frame=  268 fps= 16 q=69.0 size=       1kB time=00:00:04.50 bitrate=   1.3kbits/s speed=0.263x    frame=  277 fps= 16 q=68.0 size=       1kB time=00:00:04.68 bitrate=   1.3kbits/s speed=0.265x    frame=  286 fps= 16 q=66.0 size=       1kB time=00:00:04.86 bitrate=   1.2kbits/s speed=0.266x    frame=  287 fps= 15 q=68.0 size=       1kB time=00:00:04.88 bitrate=   1.2kbits/s speed=0.255x    frame=  296 fps= 15 q=68.0 size=     980kB time=00:00:05.06 bitrate=1586.1kbits/s speed=0.257x    frame=  305 fps= 15 q=68.0 size=     980kB time=00:00:05.24 bitrate=1531.6kbits/s speed=0.259x    frame=  314 fps= 15 q=68.0 size=     980kB time=00:00:05.42 bitrate=1480.7kbits/s speed=0.262x    frame=  323 fps= 15 q=68.0 size=     980kB time=00:00:05.60 bitrate=1433.1kbits/s speed=0.264x    frame=  331 fps= 15 q=68.0 size=     980kB time=00:00:05.76 bitrate=1393.3kbits/s speed=0.265x    frame=  340 fps= 15 q=67.0 size=     980kB time=00:00:05.94 bitrate=1351.1kbits/s speed=0.265x    frame=  349 fps= 15 q=67.0 size=     980kB time=00:00:06.12 bitrate=1311.4kbits/s speed=0.267x    frame=  357 fps= 15 q=67.0 size=     980kB time=00:00:06.28 bitrate=1278.0kbits/s speed=0.268x    frame=  366 fps= 15 q=67.0 size=     980kB time=00:00:06.46 bitrate=1242.4kbits/s speed=0.27x    frame=  375 fps= 15 q=67.0 size=     980kB time=00:00:06.64 bitrate=1208.7kbits/s speed=0.272x    frame=  384 fps= 15 q=67.0 size=     980kB time=00:00:06.82 bitrate=1176.8kbits/s speed=0.272x    frame=  393 fps= 15 q=67.0 size=     980kB time=00:00:07.00 bitrate=1146.6kbits/s speed=0.273x    frame=  402 fps= 15 q=67.0 size=     980kB time=00:00:07.18 bitrate=1117.8kbits/s speed=0.275x    frame=  411 fps= 15 q=67.0 size=     980kB time=00:00:07.36 bitrate=1090.5kbits/s speed=0.276x    frame=  420 fps= 15 q=67.0 size=     980kB time=00:00:07.54 bitrate=1064.4kbits/s speed=0.276x    frame=  429 fps= 15 q=67.0 size=     980kB time=00:00:07.72 bitrate=1039.6kbits/s speed=0.278x    frame=  438 fps= 15 q=67.0 size=     980kB time=00:00:07.90 bitrate=1015.9kbits/s speed=0.279x    frame=  447 fps= 16 q=67.0 size=     980kB time=00:00:08.08 bitrate= 993.3kbits/s speed=0.28x    frame=  456 fps= 15 q=67.0 size=     980kB time=00:00:08.26 bitrate= 971.7kbits/s speed=0.28x    frame=  465 fps= 15 q=67.0 size=     980kB time=00:00:08.44 bitrate= 951.0kbits/s speed=0.281x    frame=  474 fps= 16 q=67.0 size=     980kB time=00:00:08.62 bitrate= 931.1kbits/s speed=0.282x    frame=  483 fps= 16 q=67.0 size=     980kB time=00:00:08.80 bitrate= 912.1kbits/s speed=0.283x    frame=  492 fps= 16 q=67.0 size=     980kB time=00:00:08.98 bitrate= 893.8kbits/s speed=0.283x    frame=  500 fps= 16 q=67.0 size=     980kB time=00:00:09.14 bitrate= 878.1kbits/s speed=0.284x    frame=  500 fps= 15 q=-1.0 Lsize=    1834kB time=00:00:09.94 bitrate=1511.2kbits/s speed=0.296x    
video:1830kB audio:0kB subtitle:0kB other streams:0kB global headers:0kB muxing overhead: 0.230739%
bench: utime=99.064s
bench: maxrss=1594012kB
[libx264 @ 0x357a1c0] frame I:2     Avg QP:48.61  size: 45660
[libx264 @ 0x357a1c0] frame P:126   Avg QP:50.98  size:  6767
[libx264 @ 0x357a1c0] frame B:372   Avg QP:50.99  size:  2497
[libx264 @ 0x357a1c0] consecutive B-frames:  0.8%  0.0%  0.0% 99.2%
[libx264 @ 0x357a1c0] mb I  I16..4: 67.2% 32.1%  0.7%
[libx264 @ 0x357a1c0] mb P  I16..4: 13.5%  0.5%  0.0%  P16..4:  6.1%  0.3%  1.9%  0.0%  0.0%    skip:77.8%
[libx264 @ 0x357a1c0] mb B  I16..4:  0.0%  0.0%  0.0%  B16..8:  4.1%  0.0%  0.0%  direct: 0.3%  skip:95.6%  L0:49.1% L1:50.9% BI: 0.0%
[libx264 @ 0x357a1c0] final ratefactor: 59.19
[libx264 @ 0x357a1c0] 8x8 transform intra:6.7% inter:98.4%
[libx264 @ 0x357a1c0] coded y,uvDC,uvAC intra: 1.2% 3.0% 0.7% inter: 0.1% 0.1% 0.0%
[libx264 @ 0x357a1c0] i16 v,h,dc,p: 89%  9%  1%  0%
[libx264 @ 0x357a1c0] i8 v,h,dc,ddl,ddr,vr,hd,vl,hu: 17% 10% 53%  5%  3%  3%  3%  3%  3%
[libx264 @ 0x357a1c0] i4 v,h,dc,ddl,ddr,vr,hd,vl,hu: 30% 18% 16%  9%  7%  7%  5%  4%  4%
[libx264 @ 0x357a1c0] i8c dc,h,v,p: 99%  0%  0%  0%
[libx264 @ 0x357a1c0] Weighted P-Frames: Y:1.6% UV:0.0%
[libx264 @ 0x357a1c0] ref P L0: 58.4% 41.6%
[libx264 @ 0x357a1c0] ref B L0: 72.0% 28.0%
[libx264 @ 0x357a1c0] ref B L1: 86.0% 14.0%
[libx264 @ 0x357a1c0] kb/s:1498.28
